<svg width="320" height="109" viewBox="0 0 320 109" fill="none" xmlns="http://www.w3.org/2000/svg">
<rect y="15" width="63" height="63" rx="15" fill="#E01E5A" fill-opacity="0.7"/>
<rect x="3" y="19" width="63" height="63" rx="15" fill="#E01E5A"/>
<path d="M126.034 70V35.0909H140.011C142.58 35.0909 144.722 35.4716 146.438 36.233C148.153 36.9943 149.443 38.0511 150.307 39.4034C151.17 40.7443 151.602 42.2898 151.602 44.0398C151.602 45.4034 151.33 46.6023 150.784 47.6364C150.239 48.6591 149.489 49.5 148.534 50.1591C147.591 50.8068 146.511 51.267 145.295 51.5398V51.8807C146.625 51.9375 147.869 52.3125 149.028 53.0057C150.199 53.6989 151.148 54.6705 151.875 55.9205C152.602 57.1591 152.966 58.6364 152.966 60.3523C152.966 62.2045 152.506 63.858 151.585 65.3125C150.676 66.7557 149.33 67.8977 147.545 68.7386C145.761 69.5795 143.563 70 140.949 70H126.034ZM133.415 63.9659H139.432C141.489 63.9659 142.989 63.5739 143.932 62.7898C144.875 61.9943 145.347 60.9375 145.347 59.6193C145.347 58.6534 145.114 57.8011 144.648 57.0625C144.182 56.3239 143.517 55.7443 142.653 55.3239C141.801 54.9034 140.784 54.6932 139.602 54.6932H133.415V63.9659ZM133.415 49.6989H138.886C139.898 49.6989 140.795 49.5227 141.58 49.1705C142.375 48.8068 143 48.2955 143.455 47.6364C143.92 46.9773 144.153 46.1875 144.153 45.267C144.153 44.0057 143.705 42.9886 142.807 42.2159C141.92 41.4432 140.659 41.0568 139.023 41.0568H133.415V49.6989ZM164.893 35.0909V70H157.632V35.0909H164.893ZM182.54 70.5114C179.892 70.5114 177.602 69.9489 175.67 68.8239C173.75 67.6875 172.267 66.108 171.222 64.0852C170.176 62.0511 169.653 59.6932 169.653 57.0114C169.653 54.3068 170.176 51.9432 171.222 49.9205C172.267 47.8864 173.75 46.3068 175.67 45.1818C177.602 44.0455 179.892 43.4773 182.54 43.4773C185.188 43.4773 187.472 44.0455 189.392 45.1818C191.324 46.3068 192.812 47.8864 193.858 49.9205C194.903 51.9432 195.426 54.3068 195.426 57.0114C195.426 59.6932 194.903 62.0511 193.858 64.0852C192.812 66.108 191.324 67.6875 189.392 68.8239C187.472 69.9489 185.188 70.5114 182.54 70.5114ZM182.574 64.8864C183.778 64.8864 184.784 64.5455 185.591 63.8636C186.398 63.1705 187.006 62.2273 187.415 61.0341C187.835 59.8409 188.045 58.483 188.045 56.9602C188.045 55.4375 187.835 54.0795 187.415 52.8864C187.006 51.6932 186.398 50.75 185.591 50.0568C184.784 49.3636 183.778 49.017 182.574 49.017C181.358 49.017 180.335 49.3636 179.506 50.0568C178.688 50.75 178.068 51.6932 177.648 52.8864C177.239 54.0795 177.034 55.4375 177.034 56.9602C177.034 58.483 177.239 59.8409 177.648 61.0341C178.068 62.2273 178.688 63.1705 179.506 63.8636C180.335 64.5455 181.358 64.8864 182.574 64.8864ZM211.977 70.5114C209.295 70.5114 206.989 69.9432 205.057 68.8068C203.136 67.6591 201.659 66.0682 200.625 64.0341C199.602 62 199.091 59.6591 199.091 57.0114C199.091 54.3295 199.608 51.9773 200.642 49.9545C201.688 47.9205 203.17 46.3352 205.091 45.1989C207.011 44.0511 209.295 43.4773 211.943 43.4773C214.227 43.4773 216.227 43.892 217.943 44.7216C219.659 45.5511 221.017 46.7159 222.017 48.2159C223.017 49.7159 223.568 51.4773 223.67 53.5H216.818C216.625 52.1932 216.114 51.142 215.284 50.3466C214.466 49.5398 213.392 49.1364 212.062 49.1364C210.938 49.1364 209.955 49.4432 209.114 50.0568C208.284 50.6591 207.636 51.5398 207.17 52.6989C206.705 53.858 206.472 55.2614 206.472 56.9091C206.472 58.5795 206.699 60 207.153 61.1705C207.619 62.3409 208.273 63.233 209.114 63.8466C209.955 64.4602 210.938 64.767 212.062 64.767C212.892 64.767 213.636 64.5966 214.295 64.2557C214.966 63.9148 215.517 63.4205 215.949 62.7727C216.392 62.1136 216.682 61.3239 216.818 60.4034H223.67C223.557 62.4034 223.011 64.1648 222.034 65.6875C221.068 67.1989 219.733 68.3807 218.028 69.233C216.324 70.0852 214.307 70.5114 211.977 70.5114ZM234.899 62.4659L234.916 53.7557H235.973L244.359 43.8182H252.695L241.428 56.9773H239.706L234.899 62.4659ZM228.32 70V35.0909H235.581V70H228.32ZM244.683 70L236.979 58.5966L241.82 53.4659L253.189 70H244.683ZM256.393 70V35.0909H263.774V50.483H264.234L276.797 35.0909H285.643L272.689 50.7216L285.797 70H276.967L267.405 55.6477L263.774 60.0795V70H256.393ZM290.991 70V43.8182H298.253V70H290.991ZM294.639 40.4432C293.56 40.4432 292.634 40.0852 291.861 39.3693C291.099 38.642 290.719 37.7727 290.719 36.7614C290.719 35.7614 291.099 34.9034 291.861 34.1875C292.634 33.4602 293.56 33.0966 294.639 33.0966C295.719 33.0966 296.639 33.4602 297.401 34.1875C298.173 34.9034 298.56 35.7614 298.56 36.7614C298.56 37.7727 298.173 38.642 297.401 39.3693C296.639 40.0852 295.719 40.4432 294.639 40.4432ZM317.996 43.8182V49.2727H302.229V43.8182H317.996ZM305.808 37.5455H313.07V61.9545C313.07 62.625 313.172 63.1477 313.376 63.5227C313.581 63.8864 313.865 64.142 314.229 64.2898C314.604 64.4375 315.036 64.5114 315.524 64.5114C315.865 64.5114 316.206 64.483 316.547 64.4261C316.888 64.358 317.149 64.3068 317.331 64.2727L318.473 69.6761C318.109 69.7898 317.598 69.9205 316.939 70.0682C316.28 70.2273 315.479 70.3239 314.536 70.358C312.786 70.4261 311.251 70.1932 309.933 69.6591C308.626 69.125 307.609 68.2955 306.882 67.1705C306.155 66.0455 305.797 64.625 305.808 62.9091V37.5455Z" fill="black"/>
<path d="M61.0096 22.5C66.7831 12.5 81.2169 12.5 86.9904 22.5L106.909 57C112.682 67 105.466 79.5 93.9186 79.5H54.0815C42.5344 79.5 35.3175 67 41.091 57L61.0096 22.5Z" fill="#2EB67D" fill-opacity="0.7"/>
<path d="M64.0096 25.5C69.7831 15.5 84.2169 15.5 89.9904 25.5L109.909 60C115.682 70 108.466 82.5 96.9186 82.5H57.0815C45.5344 82.5 38.3175 70 44.091 60L64.0096 25.5Z" fill="#2EB67D"/>
</svg>
